<?xml version="1.0" encoding="UTF-8"?><svg xmlns="http://www.w3.org/2000/svg" xmlns:xlink="http://www.w3.org/1999/xlink" fill-opacity="1" color-rendering="auto" color-interpolation="auto" text-rendering="auto" stroke="black" stroke-linecap="square" width="1088" stroke-miterlimit="10" shape-rendering="auto" stroke-opacity="1" fill="black" stroke-dasharray="none" font-weight="normal" stroke-width="1" height="271" font-family="'Dialog'" font-style="normal" stroke-linejoin="miter" font-size="12px" stroke-dashoffset="0" image-rendering="auto">
  <!--Generated by ySVG 2.5-->
  <defs id="genericDefs"/>
  <g>
    <defs id="defs1">
      <clipPath clipPathUnits="userSpaceOnUse" id="clipPath1">
        <path d="M0 0 L1088 0 L1088 271 L0 271 L0 0 Z"/>
      </clipPath>
      <clipPath clipPathUnits="userSpaceOnUse" id="clipPath2">
        <path d="M-58 124 L1030 124 L1030 395 L-58 395 L-58 124 Z"/>
      </clipPath>
    </defs>
    <g fill="white" text-rendering="geometricPrecision" shape-rendering="geometricPrecision" transform="translate(58,-124)" stroke="white">
      <rect x="-58" width="1088" height="271" y="124" clip-path="url(#clipPath2)" stroke="none"/>
    </g>
    <g fill="rgb(210,211,211)" text-rendering="geometricPrecision" shape-rendering="geometricPrecision" transform="matrix(1,0,0,1,58,-124)" stroke="rgb(210,211,211)">
      <rect x="-42.7861" width="85.5723" height="30" y="231" clip-path="url(#clipPath2)" stroke="none"/>
    </g>
    <g text-rendering="geometricPrecision" stroke-miterlimit="1.45" shape-rendering="geometricPrecision" font-family="'Gill Sans'" transform="matrix(1,0,0,1,58,-124)" stroke-linecap="butt">
      <text x="-35.7861" xml:space="preserve" y="250.125" clip-path="url(#clipPath2)" stroke="none">book selection</text>
    </g>
    <g fill="rgb(210,211,211)" text-rendering="geometricPrecision" shape-rendering="geometricPrecision" transform="matrix(1,0,0,1,58,-124)" stroke="rgb(210,211,211)">
      <rect x="70.2549" width="109.4902" height="30" y="231" clip-path="url(#clipPath2)" stroke="none"/>
    </g>
    <g text-rendering="geometricPrecision" stroke-miterlimit="1.45" shape-rendering="geometricPrecision" font-family="'Gill Sans'" transform="matrix(1,0,0,1,58,-124)" stroke-linecap="butt">
      <text x="86.5596" xml:space="preserve" y="250.125" clip-path="url(#clipPath2)" stroke="none">jpeg-conversion</text>
    </g>
    <g fill="rgb(210,211,211)" text-rendering="geometricPrecision" shape-rendering="geometricPrecision" transform="matrix(1,0,0,1,58,-124)" stroke="rgb(210,211,211)">
      <rect x="282.7451" width="54.7578" height="30" y="349.5" clip-path="url(#clipPath2)" stroke="none"/>
    </g>
    <g text-rendering="geometricPrecision" stroke-miterlimit="1.45" shape-rendering="geometricPrecision" font-family="'Gill Sans'" transform="matrix(1,0,0,1,58,-124)" stroke-linecap="butt">
      <text x="294.4355" xml:space="preserve" y="368.625" clip-path="url(#clipPath2)" stroke="none">scaling</text>
    </g>
    <g fill="rgb(210,211,211)" text-rendering="geometricPrecision" shape-rendering="geometricPrecision" transform="matrix(1,0,0,1,58,-124)" stroke="rgb(210,211,211)">
      <rect x="939.3555" width="75.2891" height="30" y="230" clip-path="url(#clipPath2)" stroke="none"/>
    </g>
    <g text-rendering="geometricPrecision" stroke-miterlimit="1.45" shape-rendering="geometricPrecision" font-family="'Gill Sans'" transform="matrix(1,0,0,1,58,-124)" stroke-linecap="butt">
      <text x="952.4521" xml:space="preserve" y="249.125" clip-path="url(#clipPath2)" stroke="none">segments?</text>
      <path fill="none" d="M42.7861 246 L59.2549 246" clip-path="url(#clipPath2)"/>
      <path d="M70.2549 246 L58.2549 240 L58.2549 252 Z" clip-path="url(#clipPath2)" stroke="none"/>
      <path fill="none" d="M179.7673 244 L216.562 244 L216.562 364.5 L271.7451 364.5" clip-path="url(#clipPath2)"/>
      <path d="M282.7451 364.5 L270.7451 358.5 L270.7451 370.5 Z" clip-path="url(#clipPath2)" stroke="none"/>
    </g>
    <g fill="white" text-rendering="geometricPrecision" shape-rendering="geometricPrecision" transform="matrix(1,0,0,1,58,-124)" stroke="white">
      <rect x="648.5" width="240" height="201.666" y="139.334" clip-path="url(#clipPath2)" stroke="none"/>
      <rect x="648.5" y="139.334" clip-path="url(#clipPath2)" fill="rgb(235,235,235)" width="240" height="21.2266" stroke="none"/>
    </g>
    <g font-size="15px" stroke-linecap="butt" transform="matrix(1,0,0,1,58,-124)" text-rendering="geometricPrecision" font-family="'Gill Sans'" shape-rendering="geometricPrecision" stroke-miterlimit="1.45">
      <text x="729.4614" xml:space="preserve" y="155.1035" clip-path="url(#clipPath2)" stroke="none">chen_convolutional_2017</text>
    </g>
    <g stroke-linecap="butt" transform="matrix(1,0,0,1,58,-124)" fill="rgb(210,211,211)" text-rendering="geometricPrecision" shape-rendering="geometricPrecision" stroke="rgb(210,211,211)" stroke-miterlimit="1.45">
      <rect fill="none" x="648.5" width="240" height="201.666" y="139.334" clip-path="url(#clipPath2)"/>
      <rect stroke-linecap="square" x="706" y="230" clip-path="url(#clipPath2)" width="125" height="30" stroke="none" stroke-miterlimit="10"/>
      <text x="723.1572" y="249.125" clip-path="url(#clipPath2)" fill="black" font-family="'Gill Sans'" stroke="none" xml:space="preserve">train segmentation</text>
      <rect stroke-linecap="square" x="706" y="284" clip-path="url(#clipPath2)" width="125" height="30" stroke="none" stroke-miterlimit="10"/>
      <text x="732.6465" y="303.125" clip-path="url(#clipPath2)" fill="black" font-family="'Gill Sans'" stroke="none" xml:space="preserve">validate HisDB</text>
      <rect stroke-linecap="square" x="706" y="176" clip-path="url(#clipPath2)" width="125" height="30" stroke="none" stroke-miterlimit="10"/>
      <text x="732.5264" y="195.125" clip-path="url(#clipPath2)" fill="black" font-family="'Gill Sans'" stroke="none" xml:space="preserve">HisDB trainset</text>
      <path fill="none" d="M831.0358 245 L858.25 245 L858.25 245 L928.3555 245" clip-path="url(#clipPath2)" stroke="black"/>
      <path fill="black" d="M939.3555 245 L927.3555 239 L927.3555 251 Z" clip-path="url(#clipPath2)" stroke="none"/>
      <path fill="none" d="M768.5 260 L768.5 273" clip-path="url(#clipPath2)" stroke="black"/>
      <path fill="black" d="M768.5 284 L774.5 272 L762.5 272 Z" clip-path="url(#clipPath2)" stroke="none"/>
      <path fill="none" d="M768.5 206 L768.5 219" clip-path="url(#clipPath2)" stroke="black"/>
      <path fill="black" d="M768.5 230 L774.5 218 L762.5 218 Z" clip-path="url(#clipPath2)" stroke="none"/>
    </g>
    <g fill="white" text-rendering="geometricPrecision" shape-rendering="geometricPrecision" transform="matrix(1,0,0,1,58,-124)" stroke="white">
      <rect x="269.8342" width="313.9727" height="148.2266" y="192.7734" clip-path="url(#clipPath2)" stroke="none"/>
      <rect x="269.8342" y="192.7734" clip-path="url(#clipPath2)" fill="rgb(235,235,235)" width="313.9727" height="21.2266" stroke="none"/>
    </g>
    <g font-size="15px" stroke-linecap="butt" transform="matrix(1,0,0,1,58,-124)" text-rendering="geometricPrecision" font-family="'Gill Sans'" shape-rendering="geometricPrecision" stroke-miterlimit="1.45">
      <text x="407.007" xml:space="preserve" y="208.543" clip-path="url(#clipPath2)" stroke="none">doersch_unsupervised_2015</text>
    </g>
    <g stroke-linecap="butt" transform="matrix(1,0,0,1,58,-124)" fill="rgb(210,211,211)" text-rendering="geometricPrecision" shape-rendering="geometricPrecision" stroke="rgb(210,211,211)" stroke-miterlimit="1.45">
      <rect fill="none" x="269.8342" width="313.9727" height="148.2266" y="192.7734" clip-path="url(#clipPath2)"/>
      <rect stroke-linecap="square" x="284.8342" y="229" clip-path="url(#clipPath2)" width="135.9512" height="30" stroke="none" stroke-miterlimit="10"/>
      <text x="303.9221" y="248.125" clip-path="url(#clipPath2)" fill="black" font-family="'Gill Sans'" stroke="none" xml:space="preserve">2 positions sampling</text>
      <rect stroke-linecap="square" x="452.2356" y="229" clip-path="url(#clipPath2)" width="85.1211" height="30" stroke="none" stroke-miterlimit="10"/>
      <text x="464.3801" y="248.125" clip-path="url(#clipPath2)" fill="black" font-family="'Gill Sans'" stroke="none" xml:space="preserve">train locator</text>
      <rect stroke-linecap="square" x="420.7854" y="296" clip-path="url(#clipPath2)" width="148.0215" height="30" stroke="none" stroke-miterlimit="10"/>
      <text x="438.9094" y="315.125" clip-path="url(#clipPath2)" fill="black" font-family="'Gill Sans'" stroke="none" xml:space="preserve">analyse feature vectors</text>
      <path fill="none" d="M179.7556 244 L273.8342 244" clip-path="url(#clipPath2)" stroke="black"/>
      <path fill="black" d="M284.8342 244 L272.8342 238 L272.8342 250 Z" clip-path="url(#clipPath2)" stroke="none"/>
      <path fill="none" d="M420.7854 244 L441.2356 244" clip-path="url(#clipPath2)" stroke="black"/>
      <path fill="black" d="M452.2356 244 L440.2356 238 L440.2356 250 Z" clip-path="url(#clipPath2)" stroke="none"/>
      <path fill="none" d="M537.3567 244 L695.0139 244" clip-path="url(#clipPath2)" stroke="black"/>
      <path fill="black" d="M706.0139 244 L694.0139 238 L694.0139 250 Z" clip-path="url(#clipPath2)" stroke="none"/>
      <path fill="none" d="M491.5031 259.0161 L491.5031 277.5 L494.7961 277.5 L494.7961 285" clip-path="url(#clipPath2)" stroke="black"/>
      <path fill="black" d="M494.7961 296 L500.7961 284 L488.7961 284 Z" clip-path="url(#clipPath2)" stroke="none"/>
    </g>
  </g>
</svg>
